M48
; DRILL file {KiCad 9.0.6} date 2026-02-02T10:33:53-0500
; FORMAT={-:-/ absolute / metric / decimal}
; #@! TF.CreationDate,2026-02-02T10:33:53-05:00
; #@! TF.GenerationSoftware,Kicad,Pcbnew,9.0.6
; #@! TF.FileFunction,Plated,1,4,PTH
FMAT,2
METRIC
; #@! TA.AperFunction,Plated,PTH,ComponentDrill
T1C0.750
; #@! TA.AperFunction,Plated,PTH,ComponentDrill
T2C0.800
; #@! TA.AperFunction,Plated,PTH,ComponentDrill
T3C1.000
; #@! TA.AperFunction,Plated,PTH,ComponentDrill
T4C1.020
; #@! TA.AperFunction,Plated,PTH,ComponentDrill
T5C1.300
; #@! TA.AperFunction,Plated,PTH,ComponentDrill
T6C1.600
; #@! TA.AperFunction,Plated,PTH,ComponentDrill
T7C4.500
%
G90
G05
T1
X90.17Y-93.418
X90.17Y-94.688
X90.17Y-95.958
X90.17Y-144.218
X90.17Y-145.488
X90.17Y-146.758
X90.17Y-192.478
X90.17Y-193.748
X90.17Y-195.018
X102.87Y-93.413
X102.87Y-94.683
X102.87Y-95.953
X102.87Y-144.218
X102.87Y-145.488
X102.87Y-146.758
X102.87Y-192.478
X102.87Y-193.748
X102.87Y-195.018
X115.57Y-93.418
X115.57Y-94.688
X115.57Y-95.958
X115.57Y-144.163
X115.57Y-145.433
X115.57Y-146.703
X115.57Y-192.478
X115.57Y-193.748
X115.57Y-195.018
X128.27Y-93.418
X128.27Y-94.688
X128.27Y-95.958
X128.27Y-144.163
X128.27Y-145.433
X128.27Y-146.703
X128.27Y-192.478
X128.27Y-193.748
X128.27Y-195.018
X138.43Y-65.478
X138.43Y-66.748
X138.43Y-68.018
X138.43Y-116.278
X138.43Y-117.548
X138.43Y-118.818
X138.43Y-167.078
X138.43Y-168.348
X138.43Y-169.618
T2
X90.17Y-65.478
X90.17Y-73.098
X90.17Y-116.793
X90.17Y-124.413
X90.17Y-167.078
X90.17Y-174.698
X94.02Y-197.558
X94.02Y-205.178
X95.25Y-98.498
X95.25Y-106.118
X95.25Y-149.298
X95.25Y-156.918
X96.52Y-207.718
X97.4Y-108.658
X97.79Y-159.458
X102.87Y-65.478
X102.87Y-73.098
X102.87Y-116.543
X102.87Y-124.163
X102.87Y-167.078
X102.87Y-174.698
X104.14Y-207.718
X105.02Y-108.658
X105.41Y-159.458
X106.68Y-197.558
X106.68Y-205.178
X107.95Y-98.498
X107.95Y-106.118
X107.95Y-149.298
X107.95Y-156.918
X109.22Y-207.718
X110.49Y-108.658
X110.49Y-159.458
X115.57Y-65.478
X115.57Y-73.098
X115.57Y-116.543
X115.57Y-124.163
X115.57Y-167.078
X115.57Y-174.698
X116.84Y-207.718
X118.11Y-108.658
X118.11Y-159.458
X119.38Y-197.558
X119.38Y-205.178
X120.65Y-98.498
X120.65Y-106.118
X120.65Y-149.298
X120.65Y-156.918
X121.92Y-207.718
X123.19Y-108.658
X123.19Y-159.458
X128.27Y-65.478
X128.27Y-73.098
X128.27Y-116.543
X128.27Y-124.163
X128.27Y-167.078
X128.27Y-174.698
X129.54Y-207.718
X130.81Y-108.658
X130.81Y-159.458
X132.08Y-197.558
X132.08Y-205.178
X133.35Y-98.498
X133.35Y-106.118
X133.35Y-149.298
X133.35Y-156.918
X148.59Y-62.938
X148.59Y-113.738
X148.59Y-164.538
X156.21Y-62.938
X156.21Y-113.738
X156.21Y-164.538
X186.69Y-156.918
X188.69Y-156.918
T3
X148.59Y-70.558
X148.59Y-74.358
X148.59Y-121.358
X148.59Y-125.158
X148.59Y-172.158
X148.59Y-175.958
X170.18Y-156.918
X173.98Y-156.918
X185.21Y-77.753
X185.21Y-126.013
X187.75Y-77.753
X187.75Y-126.013
X190.29Y-77.753
X190.29Y-126.013
X192.83Y-77.753
X192.83Y-126.013
X195.37Y-77.753
X195.37Y-126.013
X197.91Y-77.753
X197.91Y-126.013
X200.45Y-77.753
X202.99Y-77.753
X202.99Y-126.013
X205.53Y-126.013
X207.05Y-77.753
X208.07Y-126.013
X209.59Y-77.753
X210.61Y-126.013
X212.13Y-77.753
X213.15Y-126.013
X214.67Y-77.753
X215.69Y-126.013
X217.21Y-77.753
X218.23Y-126.013
X219.75Y-77.753
X220.77Y-126.013
X222.29Y-77.753
X224.83Y-77.753
X227.37Y-77.753
X229.91Y-77.753
T4
X193.04Y-139.138
X193.04Y-141.678
X193.04Y-144.218
X193.04Y-146.758
X233.68Y-139.138
X233.68Y-141.678
X233.68Y-144.218
X233.68Y-146.758
T5
X90.17Y-80.718
X90.17Y-85.718
X90.17Y-131.518
X90.17Y-136.518
X90.17Y-180.913
X90.17Y-185.913
X102.87Y-80.718
X102.87Y-85.718
X102.87Y-131.518
X102.87Y-136.518
X102.87Y-181.048
X102.87Y-186.048
X115.57Y-80.718
X115.57Y-85.718
X115.57Y-131.518
X115.57Y-136.518
X115.57Y-180.913
X115.57Y-185.913
X128.27Y-80.718
X128.27Y-85.718
X128.27Y-131.518
X128.27Y-136.518
X128.27Y-181.048
X128.27Y-186.048
X165.1Y-139.138
X165.1Y-144.138
X179.07Y-139.138
X179.07Y-144.138
X202.17Y-161.998
X207.17Y-161.998
X212.17Y-161.998
X217.17Y-161.998
X222.17Y-161.998
T6
X179.07Y-170.013
X179.07Y-176.013
X183.77Y-173.013
T7
X80.01Y-60.398
X80.01Y-207.718
X252.73Y-60.398
X252.73Y-207.718
M30
