%TF.GenerationSoftware,KiCad,Pcbnew,9.0.6*%
%TF.CreationDate,2026-02-02T10:33:40-05:00*%
%TF.ProjectId,rosekicad,726f7365-6b69-4636-9164-2e6b69636164,rev?*%
%TF.SameCoordinates,Original*%
%TF.FileFunction,Soldermask,Top*%
%TF.FilePolarity,Negative*%
%FSLAX46Y46*%
G04 Gerber Fmt 4.6, Leading zero omitted, Abs format (unit mm)*
G04 Created by KiCad (PCBNEW 9.0.6) date 2026-02-02 10:33:40*
%MOMM*%
%LPD*%
G01*
G04 APERTURE LIST*
G04 Aperture macros list*
%AMRoundRect*
0 Rectangle with rounded corners*
0 $1 Rounding radius*
0 $2 $3 $4 $5 $6 $7 $8 $9 X,Y pos of 4 corners*
0 Add a 4 corners polygon primitive as box body*
4,1,4,$2,$3,$4,$5,$6,$7,$8,$9,$2,$3,0*
0 Add four circle primitives for the rounded corners*
1,1,$1+$1,$2,$3*
1,1,$1+$1,$4,$5*
1,1,$1+$1,$6,$7*
1,1,$1+$1,$8,$9*
0 Add four rect primitives between the rounded corners*
20,1,$1+$1,$2,$3,$4,$5,0*
20,1,$1+$1,$4,$5,$6,$7,0*
20,1,$1+$1,$6,$7,$8,$9,0*
20,1,$1+$1,$8,$9,$2,$3,0*%
G04 Aperture macros list end*
%ADD10R,1.500000X1.050000*%
%ADD11O,1.500000X1.050000*%
%ADD12C,1.600000*%
%ADD13RoundRect,0.250000X-0.550000X-0.550000X0.550000X-0.550000X0.550000X0.550000X-0.550000X0.550000X0*%
%ADD14C,9.000000*%
%ADD15RoundRect,0.250001X-1.149999X1.149999X-1.149999X-1.149999X1.149999X-1.149999X1.149999X1.149999X0*%
%ADD16C,2.800000*%
%ADD17C,1.905000*%
%ADD18RoundRect,0.250000X0.750000X0.750000X-0.750000X0.750000X-0.750000X-0.750000X0.750000X-0.750000X0*%
%ADD19C,2.000000*%
%ADD20R,1.600000X1.600000*%
%ADD21O,1.600000X1.600000*%
%ADD22RoundRect,0.250000X-0.750000X0.750000X-0.750000X-0.750000X0.750000X-0.750000X0.750000X0.750000X0*%
%ADD23RoundRect,0.250001X-1.149999X-1.149999X1.149999X-1.149999X1.149999X1.149999X-1.149999X1.149999X0*%
%ADD24RoundRect,0.250000X0.550000X0.550000X-0.550000X0.550000X-0.550000X-0.550000X0.550000X-0.550000X0*%
%ADD25R,2.600000X2.600000*%
%ADD26C,2.600000*%
G04 APERTURE END LIST*
D10*
%TO.C,Q7*%
X115570000Y-146702701D03*
D11*
X115570000Y-145432701D03*
X115570000Y-144162701D03*
%TD*%
D10*
%TO.C,Q10*%
X102870000Y-95952701D03*
D11*
X102870000Y-94682701D03*
X102870000Y-93412701D03*
%TD*%
D12*
%TO.C,R6*%
X94020000Y-197557701D03*
X94020000Y-205177701D03*
%TD*%
%TO.C,R20*%
X90170000Y-65477701D03*
X90170000Y-73097701D03*
%TD*%
%TO.C,R17*%
X120650000Y-149297701D03*
X120650000Y-156917701D03*
%TD*%
D13*
%TO.C,D5*%
X110490000Y-159457701D03*
D12*
X118110000Y-159457701D03*
%TD*%
%TO.C,R15*%
X95250000Y-149297701D03*
X95250000Y-156917701D03*
%TD*%
%TO.C,R18*%
X133350000Y-149297701D03*
X133350000Y-156917701D03*
%TD*%
D14*
%TO.C,H2*%
X80010000Y-60397701D03*
%TD*%
D15*
%TO.C,J10*%
X102870000Y-80717701D03*
D16*
X102870000Y-85717701D03*
%TD*%
D13*
%TO.C,D7*%
X97400000Y-108657701D03*
D12*
X105020000Y-108657701D03*
%TD*%
D15*
%TO.C,J13*%
X179070000Y-139137701D03*
D16*
X179070000Y-144137701D03*
%TD*%
D12*
%TO.C,R27*%
X133350000Y-98497701D03*
X133350000Y-106117701D03*
%TD*%
%TO.C,R11*%
X90170000Y-116792701D03*
X90170000Y-124412701D03*
%TD*%
D15*
%TO.C,J6*%
X102870000Y-131517701D03*
D16*
X102870000Y-136517701D03*
%TD*%
D13*
%TO.C,D2*%
X109220000Y-207717701D03*
D12*
X116840000Y-207717701D03*
%TD*%
%TO.C,R7*%
X106680000Y-197557701D03*
X106680000Y-205177701D03*
%TD*%
D10*
%TO.C,Q13*%
X138430000Y-169617701D03*
D11*
X138430000Y-168347701D03*
X138430000Y-167077701D03*
%TD*%
D14*
%TO.C,H1*%
X252730000Y-60397701D03*
%TD*%
D12*
%TO.C,R5*%
X128270000Y-167077701D03*
X128270000Y-174697701D03*
%TD*%
%TO.C,R9*%
X132080000Y-197557701D03*
X132080000Y-205177701D03*
%TD*%
D10*
%TO.C,Q9*%
X90170000Y-95957701D03*
D11*
X90170000Y-94687701D03*
X90170000Y-93417701D03*
%TD*%
D13*
%TO.C,D9*%
X123190000Y-108657701D03*
D12*
X130810000Y-108657701D03*
%TD*%
D17*
%TO.C,U1*%
X193040000Y-139137701D03*
X193040000Y-141677701D03*
X193040000Y-144217701D03*
X193040000Y-146757701D03*
X233680000Y-146757701D03*
X233680000Y-144217701D03*
X233680000Y-141677701D03*
X233680000Y-139137701D03*
%TD*%
D12*
%TO.C,R8*%
X119380000Y-197557701D03*
X119380000Y-205177701D03*
%TD*%
D10*
%TO.C,Q14*%
X138430000Y-118817701D03*
D11*
X138430000Y-117547701D03*
X138430000Y-116277701D03*
%TD*%
D12*
%TO.C,R24*%
X95250000Y-98497701D03*
X95250000Y-106117701D03*
%TD*%
D10*
%TO.C,Q8*%
X128270000Y-146702701D03*
D11*
X128270000Y-145432701D03*
X128270000Y-144162701D03*
%TD*%
D13*
%TO.C,D8*%
X110490000Y-108657701D03*
D12*
X118110000Y-108657701D03*
%TD*%
%TO.C,R4*%
X115570000Y-167077701D03*
X115570000Y-174697701D03*
%TD*%
D10*
%TO.C,Q3*%
X115570000Y-195017701D03*
D11*
X115570000Y-193747701D03*
X115570000Y-192477701D03*
%TD*%
D10*
%TO.C,Q6*%
X102870000Y-146757701D03*
D11*
X102870000Y-145487701D03*
X102870000Y-144217701D03*
%TD*%
D12*
%TO.C,R12*%
X102870000Y-116542701D03*
X102870000Y-124162701D03*
%TD*%
D10*
%TO.C,Q1*%
X90170000Y-195017701D03*
D11*
X90170000Y-193747701D03*
X90170000Y-192477701D03*
%TD*%
D12*
%TO.C,R14*%
X128270000Y-116542701D03*
X128270000Y-124162701D03*
%TD*%
D13*
%TO.C,D6*%
X123190000Y-159457701D03*
D12*
X130810000Y-159457701D03*
%TD*%
D18*
%TO.C,C5*%
X173980000Y-156917701D03*
D19*
X170180000Y-156917701D03*
%TD*%
D12*
%TO.C,R21*%
X102870000Y-65477701D03*
X102870000Y-73097701D03*
%TD*%
%TO.C,R22*%
X115570000Y-65477701D03*
X115570000Y-73097701D03*
%TD*%
%TO.C,R3*%
X102870000Y-167077701D03*
X102870000Y-174697701D03*
%TD*%
D15*
%TO.C,J1*%
X90170000Y-180912701D03*
D16*
X90170000Y-185912701D03*
%TD*%
D15*
%TO.C,J12*%
X128270000Y-80717701D03*
D16*
X128270000Y-85717701D03*
%TD*%
D12*
%TO.C,R16*%
X107950000Y-149297701D03*
X107950000Y-156917701D03*
%TD*%
D10*
%TO.C,Q12*%
X128270000Y-95957701D03*
D11*
X128270000Y-94687701D03*
X128270000Y-93417701D03*
%TD*%
D15*
%TO.C,J14*%
X165100000Y-139137701D03*
D16*
X165100000Y-144137701D03*
%TD*%
D12*
%TO.C,R10*%
X148590000Y-113737701D03*
X156210000Y-113737701D03*
%TD*%
%TO.C,R13*%
X115570000Y-116542701D03*
X115570000Y-124162701D03*
%TD*%
%TO.C,R26*%
X120650000Y-98497701D03*
X120650000Y-106117701D03*
%TD*%
D15*
%TO.C,J4*%
X128270000Y-181047701D03*
D16*
X128270000Y-186047701D03*
%TD*%
D14*
%TO.C,H3*%
X80010000Y-207717701D03*
%TD*%
D20*
%TO.C,A1*%
X220770000Y-126012701D03*
D21*
X218230000Y-126012701D03*
X215690000Y-126012701D03*
X213150000Y-126012701D03*
X210610000Y-126012701D03*
X208070000Y-126012701D03*
X205530000Y-126012701D03*
X202990000Y-126012701D03*
X197910000Y-126012701D03*
X195370000Y-126012701D03*
X192830000Y-126012701D03*
X190290000Y-126012701D03*
X187750000Y-126012701D03*
X185210000Y-126012701D03*
X185210000Y-77752701D03*
X187750000Y-77752701D03*
X190290000Y-77752701D03*
X192830000Y-77752701D03*
X195370000Y-77752701D03*
X197910000Y-77752701D03*
X200450000Y-77752701D03*
X202990000Y-77752701D03*
X207050000Y-77752701D03*
X209590000Y-77752701D03*
X212130000Y-77752701D03*
X214670000Y-77752701D03*
X217210000Y-77752701D03*
X219750000Y-77752701D03*
X222290000Y-77752701D03*
X224830000Y-77752701D03*
X227370000Y-77752701D03*
X229910000Y-77752701D03*
%TD*%
D12*
%TO.C,R19*%
X148590000Y-62937701D03*
X156210000Y-62937701D03*
%TD*%
%TO.C,R2*%
X90170000Y-167077701D03*
X90170000Y-174697701D03*
%TD*%
%TO.C,R1*%
X148590000Y-164537701D03*
X156210000Y-164537701D03*
%TD*%
D22*
%TO.C,C2*%
X148590000Y-121357701D03*
D19*
X148590000Y-125157701D03*
%TD*%
D15*
%TO.C,J7*%
X115570000Y-131517701D03*
D16*
X115570000Y-136517701D03*
%TD*%
D12*
%TO.C,R23*%
X128270000Y-65477701D03*
X128270000Y-73097701D03*
%TD*%
D10*
%TO.C,Q4*%
X128270000Y-195017701D03*
D11*
X128270000Y-193747701D03*
X128270000Y-192477701D03*
%TD*%
D15*
%TO.C,J9*%
X90170000Y-80717701D03*
D16*
X90170000Y-85717701D03*
%TD*%
D15*
%TO.C,J3*%
X115570000Y-180912701D03*
D16*
X115570000Y-185912701D03*
%TD*%
D15*
%TO.C,J8*%
X128270000Y-131517701D03*
D16*
X128270000Y-136517701D03*
%TD*%
D10*
%TO.C,Q2*%
X102870000Y-195017701D03*
D11*
X102870000Y-193747701D03*
X102870000Y-192477701D03*
%TD*%
D15*
%TO.C,J2*%
X102870000Y-181047701D03*
D16*
X102870000Y-186047701D03*
%TD*%
D15*
%TO.C,J5*%
X90170000Y-131517701D03*
D16*
X90170000Y-136517701D03*
%TD*%
D13*
%TO.C,D4*%
X97790000Y-159457701D03*
D12*
X105410000Y-159457701D03*
%TD*%
D23*
%TO.C,J15*%
X202170000Y-161997701D03*
D16*
X207170000Y-161997701D03*
X212170000Y-161997701D03*
X217170000Y-161997701D03*
X222170000Y-161997701D03*
%TD*%
D10*
%TO.C,Q15*%
X138430000Y-68017701D03*
D11*
X138430000Y-66747701D03*
X138430000Y-65477701D03*
%TD*%
D14*
%TO.C,H4*%
X252730000Y-207717701D03*
%TD*%
D24*
%TO.C,C4*%
X188690000Y-156917701D03*
D12*
X186690000Y-156917701D03*
%TD*%
D22*
%TO.C,C3*%
X148590000Y-70557701D03*
D19*
X148590000Y-74357701D03*
%TD*%
D25*
%TO.C,J16*%
X179070000Y-170012701D03*
D26*
X179070000Y-176012701D03*
X183770000Y-173012701D03*
%TD*%
D13*
%TO.C,D3*%
X121920000Y-207717701D03*
D12*
X129540000Y-207717701D03*
%TD*%
D15*
%TO.C,J11*%
X115570000Y-80717701D03*
D16*
X115570000Y-85717701D03*
%TD*%
D22*
%TO.C,C1*%
X148590000Y-172157701D03*
D19*
X148590000Y-175957701D03*
%TD*%
D13*
%TO.C,D1*%
X96520000Y-207717701D03*
D12*
X104140000Y-207717701D03*
%TD*%
D10*
%TO.C,Q11*%
X115570000Y-95957701D03*
D11*
X115570000Y-94687701D03*
X115570000Y-93417701D03*
%TD*%
D10*
%TO.C,Q5*%
X90170000Y-146757701D03*
D11*
X90170000Y-145487701D03*
X90170000Y-144217701D03*
%TD*%
D12*
%TO.C,R25*%
X107950000Y-98497701D03*
X107950000Y-106117701D03*
%TD*%
M02*
