%TF.GenerationSoftware,KiCad,Pcbnew,9.0.6*%
%TF.CreationDate,2026-02-02T10:33:40-05:00*%
%TF.ProjectId,rosekicad,726f7365-6b69-4636-9164-2e6b69636164,rev?*%
%TF.SameCoordinates,Original*%
%TF.FileFunction,Copper,L1,Top*%
%TF.FilePolarity,Positive*%
%FSLAX46Y46*%
G04 Gerber Fmt 4.6, Leading zero omitted, Abs format (unit mm)*
G04 Created by KiCad (PCBNEW 9.0.6) date 2026-02-02 10:33:40*
%MOMM*%
%LPD*%
G01*
G04 APERTURE LIST*
G04 Aperture macros list*
%AMRoundRect*
0 Rectangle with rounded corners*
0 $1 Rounding radius*
0 $2 $3 $4 $5 $6 $7 $8 $9 X,Y pos of 4 corners*
0 Add a 4 corners polygon primitive as box body*
4,1,4,$2,$3,$4,$5,$6,$7,$8,$9,$2,$3,0*
0 Add four circle primitives for the rounded corners*
1,1,$1+$1,$2,$3*
1,1,$1+$1,$4,$5*
1,1,$1+$1,$6,$7*
1,1,$1+$1,$8,$9*
0 Add four rect primitives between the rounded corners*
20,1,$1+$1,$2,$3,$4,$5,0*
20,1,$1+$1,$4,$5,$6,$7,0*
20,1,$1+$1,$6,$7,$8,$9,0*
20,1,$1+$1,$8,$9,$2,$3,0*%
G04 Aperture macros list end*
%TA.AperFunction,ComponentPad*%
%ADD10R,1.500000X1.050000*%
%TD*%
%TA.AperFunction,ComponentPad*%
%ADD11O,1.500000X1.050000*%
%TD*%
%TA.AperFunction,ComponentPad*%
%ADD12C,1.600000*%
%TD*%
%TA.AperFunction,ComponentPad*%
%ADD13RoundRect,0.250000X-0.550000X-0.550000X0.550000X-0.550000X0.550000X0.550000X-0.550000X0.550000X0*%
%TD*%
%TA.AperFunction,ComponentPad*%
%ADD14C,9.000000*%
%TD*%
%TA.AperFunction,ComponentPad*%
%ADD15RoundRect,0.250001X-1.149999X1.149999X-1.149999X-1.149999X1.149999X-1.149999X1.149999X1.149999X0*%
%TD*%
%TA.AperFunction,ComponentPad*%
%ADD16C,2.800000*%
%TD*%
%TA.AperFunction,ComponentPad*%
%ADD17C,1.905000*%
%TD*%
%TA.AperFunction,ComponentPad*%
%ADD18RoundRect,0.250000X0.750000X0.750000X-0.750000X0.750000X-0.750000X-0.750000X0.750000X-0.750000X0*%
%TD*%
%TA.AperFunction,ComponentPad*%
%ADD19C,2.000000*%
%TD*%
%TA.AperFunction,ComponentPad*%
%ADD20R,1.600000X1.600000*%
%TD*%
%TA.AperFunction,ComponentPad*%
%ADD21O,1.600000X1.600000*%
%TD*%
%TA.AperFunction,ComponentPad*%
%ADD22RoundRect,0.250000X-0.750000X0.750000X-0.750000X-0.750000X0.750000X-0.750000X0.750000X0.750000X0*%
%TD*%
%TA.AperFunction,ComponentPad*%
%ADD23RoundRect,0.250001X-1.149999X-1.149999X1.149999X-1.149999X1.149999X1.149999X-1.149999X1.149999X0*%
%TD*%
%TA.AperFunction,ComponentPad*%
%ADD24RoundRect,0.250000X0.550000X0.550000X-0.550000X0.550000X-0.550000X-0.550000X0.550000X-0.550000X0*%
%TD*%
%TA.AperFunction,ComponentPad*%
%ADD25R,2.600000X2.600000*%
%TD*%
%TA.AperFunction,ComponentPad*%
%ADD26C,2.600000*%
%TD*%
%TA.AperFunction,Conductor*%
%ADD27C,0.254000*%
%TD*%
%TA.AperFunction,Conductor*%
%ADD28C,0.200000*%
%TD*%
G04 APERTURE END LIST*
D10*
%TO.P,Q7,1,E*%
%TO.N,GND*%
X115570000Y-146702701D03*
D11*
%TO.P,Q7,2,B*%
%TO.N,Net-(Q7-B)*%
X115570000Y-145432701D03*
%TO.P,Q7,3,C*%
%TO.N,Net-(J7-Pin_2)*%
X115570000Y-144162701D03*
%TD*%
D10*
%TO.P,Q10,1,E*%
%TO.N,GND*%
X102870000Y-95952701D03*
D11*
%TO.P,Q10,2,B*%
%TO.N,Net-(Q10-B)*%
X102870000Y-94682701D03*
%TO.P,Q10,3,C*%
%TO.N,Net-(J10-Pin_2)*%
X102870000Y-93412701D03*
%TD*%
D12*
%TO.P,R6,1*%
%TO.N,Net-(Q1-B)*%
X94020000Y-197557701D03*
%TO.P,R6,2*%
%TO.N,Net-(D1-K)*%
X94020000Y-205177701D03*
%TD*%
%TO.P,R20,1*%
%TO.N,+5V*%
X90170000Y-65477701D03*
%TO.P,R20,2*%
%TO.N,Net-(J9-Pin_1)*%
X90170000Y-73097701D03*
%TD*%
%TO.P,R17,1*%
%TO.N,Net-(Q7-B)*%
X120650000Y-149297701D03*
%TO.P,R17,2*%
%TO.N,Net-(D5-A)*%
X120650000Y-156917701D03*
%TD*%
D13*
%TO.P,D5,1,K*%
%TO.N,Net-(D4-A)*%
X110490000Y-159457701D03*
D12*
%TO.P,D5,2,A*%
%TO.N,Net-(D5-A)*%
X118110000Y-159457701D03*
%TD*%
%TO.P,R15,1*%
%TO.N,Net-(Q5-B)*%
X95250000Y-149297701D03*
%TO.P,R15,2*%
%TO.N,Net-(D4-K)*%
X95250000Y-156917701D03*
%TD*%
%TO.P,R18,1*%
%TO.N,Net-(Q8-B)*%
X133350000Y-149297701D03*
%TO.P,R18,2*%
%TO.N,Net-(D6-A)*%
X133350000Y-156917701D03*
%TD*%
D14*
%TO.P,H2,1*%
%TO.N,N/C*%
X80010000Y-60397701D03*
%TD*%
D15*
%TO.P,J10,1,Pin_1*%
%TO.N,Net-(J10-Pin_1)*%
X102870000Y-80717701D03*
D16*
%TO.P,J10,2,Pin_2*%
%TO.N,Net-(J10-Pin_2)*%
X102870000Y-85717701D03*
%TD*%
D13*
%TO.P,D7,1,K*%
%TO.N,Net-(D7-K)*%
X97400000Y-108657701D03*
D12*
%TO.P,D7,2,A*%
%TO.N,Net-(D7-A)*%
X105020000Y-108657701D03*
%TD*%
D15*
%TO.P,J13,1,Pin_1*%
%TO.N,Net-(A1-D3)*%
X179070000Y-139137701D03*
D16*
%TO.P,J13,2,Pin_2*%
%TO.N,GND*%
X179070000Y-144137701D03*
%TD*%
D12*
%TO.P,R27,1*%
%TO.N,Net-(Q12-B)*%
X133350000Y-98497701D03*
%TO.P,R27,2*%
%TO.N,Net-(D9-A)*%
X133350000Y-106117701D03*
%TD*%
%TO.P,R11,1*%
%TO.N,+5V*%
X90170000Y-116792701D03*
%TO.P,R11,2*%
%TO.N,Net-(J5-Pin_1)*%
X90170000Y-124412701D03*
%TD*%
D15*
%TO.P,J6,1,Pin_1*%
%TO.N,Net-(J6-Pin_1)*%
X102870000Y-131517701D03*
D16*
%TO.P,J6,2,Pin_2*%
%TO.N,Net-(J6-Pin_2)*%
X102870000Y-136517701D03*
%TD*%
D13*
%TO.P,D2,1,K*%
%TO.N,Net-(D1-A)*%
X109220000Y-207717701D03*
D12*
%TO.P,D2,2,A*%
%TO.N,Net-(D2-A)*%
X116840000Y-207717701D03*
%TD*%
%TO.P,R7,1*%
%TO.N,Net-(Q2-B)*%
X106680000Y-197557701D03*
%TO.P,R7,2*%
%TO.N,Net-(D1-A)*%
X106680000Y-205177701D03*
%TD*%
D10*
%TO.P,Q13,1,E*%
%TO.N,Net-(D3-A)*%
X138430000Y-169617701D03*
D11*
%TO.P,Q13,2,B*%
%TO.N,Net-(Q13-B)*%
X138430000Y-168347701D03*
%TO.P,Q13,3,C*%
%TO.N,+5V*%
X138430000Y-167077701D03*
%TD*%
D14*
%TO.P,H1,1*%
%TO.N,N/C*%
X252730000Y-60397701D03*
%TD*%
D12*
%TO.P,R5,1*%
%TO.N,+5V*%
X128270000Y-167077701D03*
%TO.P,R5,2*%
%TO.N,Net-(J4-Pin_1)*%
X128270000Y-174697701D03*
%TD*%
%TO.P,R9,1*%
%TO.N,Net-(Q4-B)*%
X132080000Y-197557701D03*
%TO.P,R9,2*%
%TO.N,Net-(D3-A)*%
X132080000Y-205177701D03*
%TD*%
D10*
%TO.P,Q9,1,E*%
%TO.N,GND*%
X90170000Y-95957701D03*
D11*
%TO.P,Q9,2,B*%
%TO.N,Net-(Q9-B)*%
X90170000Y-94687701D03*
%TO.P,Q9,3,C*%
%TO.N,Net-(J9-Pin_2)*%
X90170000Y-93417701D03*
%TD*%
D13*
%TO.P,D9,1,K*%
%TO.N,Net-(D8-A)*%
X123190000Y-108657701D03*
D12*
%TO.P,D9,2,A*%
%TO.N,Net-(D9-A)*%
X130810000Y-108657701D03*
%TD*%
D17*
%TO.P,U1,1,RO*%
%TO.N,Net-(A1-D0{slash}RX)*%
X193040000Y-139137701D03*
%TO.P,U1,2,~{RE}*%
%TO.N,GND*%
X193040000Y-141677701D03*
%TO.P,U1,3,DE*%
X193040000Y-144217701D03*
%TO.P,U1,4,DI*%
%TO.N,unconnected-(U1-DI-Pad4)*%
X193040000Y-146757701D03*
%TO.P,U1,5,GND*%
%TO.N,GND*%
X233680000Y-146757701D03*
%TO.P,U1,6,A*%
%TO.N,Net-(J15-Pin_2)*%
X233680000Y-144217701D03*
%TO.P,U1,7,B*%
%TO.N,Net-(J15-Pin_3)*%
X233680000Y-141677701D03*
%TO.P,U1,8,VCC*%
%TO.N,+5V*%
X233680000Y-139137701D03*
%TD*%
D12*
%TO.P,R8,1*%
%TO.N,Net-(Q3-B)*%
X119380000Y-197557701D03*
%TO.P,R8,2*%
%TO.N,Net-(D2-A)*%
X119380000Y-205177701D03*
%TD*%
D10*
%TO.P,Q14,1,E*%
%TO.N,Net-(D6-A)*%
X138430000Y-118817701D03*
D11*
%TO.P,Q14,2,B*%
%TO.N,Net-(Q14-B)*%
X138430000Y-117547701D03*
%TO.P,Q14,3,C*%
%TO.N,+5V*%
X138430000Y-116277701D03*
%TD*%
D12*
%TO.P,R24,1*%
%TO.N,Net-(Q9-B)*%
X95250000Y-98497701D03*
%TO.P,R24,2*%
%TO.N,Net-(D7-K)*%
X95250000Y-106117701D03*
%TD*%
D10*
%TO.P,Q8,1,E*%
%TO.N,GND*%
X128270000Y-146702701D03*
D11*
%TO.P,Q8,2,B*%
%TO.N,Net-(Q8-B)*%
X128270000Y-145432701D03*
%TO.P,Q8,3,C*%
%TO.N,Net-(J8-Pin_2)*%
X128270000Y-144162701D03*
%TD*%
D13*
%TO.P,D8,1,K*%
%TO.N,Net-(D7-A)*%
X110490000Y-108657701D03*
D12*
%TO.P,D8,2,A*%
%TO.N,Net-(D8-A)*%
X118110000Y-108657701D03*
%TD*%
%TO.P,R4,1*%
%TO.N,+5V*%
X115570000Y-167077701D03*
%TO.P,R4,2*%
%TO.N,Net-(J3-Pin_1)*%
X115570000Y-174697701D03*
%TD*%
D10*
%TO.P,Q3,1,E*%
%TO.N,GND*%
X115570000Y-195017701D03*
D11*
%TO.P,Q3,2,B*%
%TO.N,Net-(Q3-B)*%
X115570000Y-193747701D03*
%TO.P,Q3,3,C*%
%TO.N,Net-(J3-Pin_2)*%
X115570000Y-192477701D03*
%TD*%
D10*
%TO.P,Q6,1,E*%
%TO.N,GND*%
X102870000Y-146757701D03*
D11*
%TO.P,Q6,2,B*%
%TO.N,Net-(Q6-B)*%
X102870000Y-145487701D03*
%TO.P,Q6,3,C*%
%TO.N,Net-(J6-Pin_2)*%
X102870000Y-144217701D03*
%TD*%
D12*
%TO.P,R12,1*%
%TO.N,+5V*%
X102870000Y-116542701D03*
%TO.P,R12,2*%
%TO.N,Net-(J6-Pin_1)*%
X102870000Y-124162701D03*
%TD*%
D10*
%TO.P,Q1,1,E*%
%TO.N,GND*%
X90170000Y-195017701D03*
D11*
%TO.P,Q1,2,B*%
%TO.N,Net-(Q1-B)*%
X90170000Y-193747701D03*
%TO.P,Q1,3,C*%
%TO.N,Net-(J1-Pin_2)*%
X90170000Y-192477701D03*
%TD*%
D12*
%TO.P,R14,1*%
%TO.N,+5V*%
X128270000Y-116542701D03*
%TO.P,R14,2*%
%TO.N,Net-(J8-Pin_1)*%
X128270000Y-124162701D03*
%TD*%
D13*
%TO.P,D6,1,K*%
%TO.N,Net-(D5-A)*%
X123190000Y-159457701D03*
D12*
%TO.P,D6,2,A*%
%TO.N,Net-(D6-A)*%
X130810000Y-159457701D03*
%TD*%
D18*
%TO.P,C5,1*%
%TO.N,+5V*%
X173980000Y-156917701D03*
D19*
%TO.P,C5,2*%
%TO.N,GND*%
X170180000Y-156917701D03*
%TD*%
D12*
%TO.P,R21,1*%
%TO.N,+5V*%
X102870000Y-65477701D03*
%TO.P,R21,2*%
%TO.N,Net-(J10-Pin_1)*%
X102870000Y-73097701D03*
%TD*%
%TO.P,R22,1*%
%TO.N,+5V*%
X115570000Y-65477701D03*
%TO.P,R22,2*%
%TO.N,Net-(J11-Pin_1)*%
X115570000Y-73097701D03*
%TD*%
%TO.P,R3,1*%
%TO.N,+5V*%
X102870000Y-167077701D03*
%TO.P,R3,2*%
%TO.N,Net-(J2-Pin_1)*%
X102870000Y-174697701D03*
%TD*%
D15*
%TO.P,J1,1,Pin_1*%
%TO.N,Net-(J1-Pin_1)*%
X90170000Y-180912701D03*
D16*
%TO.P,J1,2,Pin_2*%
%TO.N,Net-(J1-Pin_2)*%
X90170000Y-185912701D03*
%TD*%
D15*
%TO.P,J12,1,Pin_1*%
%TO.N,Net-(J12-Pin_1)*%
X128270000Y-80717701D03*
D16*
%TO.P,J12,2,Pin_2*%
%TO.N,Net-(J12-Pin_2)*%
X128270000Y-85717701D03*
%TD*%
D12*
%TO.P,R16,1*%
%TO.N,Net-(Q6-B)*%
X107950000Y-149297701D03*
%TO.P,R16,2*%
%TO.N,Net-(D4-A)*%
X107950000Y-156917701D03*
%TD*%
D10*
%TO.P,Q12,1,E*%
%TO.N,GND*%
X128270000Y-95957701D03*
D11*
%TO.P,Q12,2,B*%
%TO.N,Net-(Q12-B)*%
X128270000Y-94687701D03*
%TO.P,Q12,3,C*%
%TO.N,Net-(J12-Pin_2)*%
X128270000Y-93417701D03*
%TD*%
D15*
%TO.P,J14,1,Pin_1*%
%TO.N,Net-(A1-D5)*%
X165100000Y-139137701D03*
D16*
%TO.P,J14,2,Pin_2*%
%TO.N,GND*%
X165100000Y-144137701D03*
%TD*%
D12*
%TO.P,R10,1*%
%TO.N,Net-(Q14-B)*%
X148590000Y-113737701D03*
%TO.P,R10,2*%
%TO.N,Net-(A1-D9)*%
X156210000Y-113737701D03*
%TD*%
%TO.P,R13,1*%
%TO.N,+5V*%
X115570000Y-116542701D03*
%TO.P,R13,2*%
%TO.N,Net-(J7-Pin_1)*%
X115570000Y-124162701D03*
%TD*%
%TO.P,R26,1*%
%TO.N,Net-(Q11-B)*%
X120650000Y-98497701D03*
%TO.P,R26,2*%
%TO.N,Net-(D8-A)*%
X120650000Y-106117701D03*
%TD*%
D15*
%TO.P,J4,1,Pin_1*%
%TO.N,Net-(J4-Pin_1)*%
X128270000Y-181047701D03*
D16*
%TO.P,J4,2,Pin_2*%
%TO.N,Net-(J4-Pin_2)*%
X128270000Y-186047701D03*
%TD*%
D14*
%TO.P,H3,1*%
%TO.N,N/C*%
X80010000Y-207717701D03*
%TD*%
D20*
%TO.P,A1,1,NC*%
%TO.N,unconnected-(A1-NC-Pad1)*%
X220770000Y-126012701D03*
D21*
%TO.P,A1,2,IOREF*%
%TO.N,unconnected-(A1-IOREF-Pad2)*%
X218230000Y-126012701D03*
%TO.P,A1,3,~{RESET}*%
%TO.N,unconnected-(A1-~{RESET}-Pad3)*%
X215690000Y-126012701D03*
%TO.P,A1,4,3V3*%
%TO.N,unconnected-(A1-3V3-Pad4)*%
X213150000Y-126012701D03*
%TO.P,A1,5,+5V*%
%TO.N,+5V*%
X210610000Y-126012701D03*
%TO.P,A1,6,GND*%
%TO.N,GND*%
X208070000Y-126012701D03*
%TO.P,A1,7,GND*%
X205530000Y-126012701D03*
%TO.P,A1,8,VIN*%
%TO.N,unconnected-(A1-VIN-Pad8)*%
X202990000Y-126012701D03*
%TO.P,A1,9,A0*%
%TO.N,unconnected-(A1-A0-Pad9)*%
X197910000Y-126012701D03*
%TO.P,A1,10,A1*%
%TO.N,unconnected-(A1-A1-Pad10)*%
X195370000Y-126012701D03*
%TO.P,A1,11,A2*%
%TO.N,unconnected-(A1-A2-Pad11)*%
X192830000Y-126012701D03*
%TO.P,A1,12,A3*%
%TO.N,unconnected-(A1-A3-Pad12)*%
X190290000Y-126012701D03*
%TO.P,A1,13,SDA/A4*%
%TO.N,unconnected-(A1-SDA{slash}A4-Pad13)*%
X187750000Y-126012701D03*
%TO.P,A1,14,SCL/A5*%
%TO.N,unconnected-(A1-SCL{slash}A5-Pad14)*%
X185210000Y-126012701D03*
%TO.P,A1,15,D0/RX*%
%TO.N,Net-(A1-D0{slash}RX)*%
X185210000Y-77752701D03*
%TO.P,A1,16,D1/TX*%
%TO.N,unconnected-(A1-D1{slash}TX-Pad16)*%
X187750000Y-77752701D03*
%TO.P,A1,17,D2*%
%TO.N,unconnected-(A1-D2-Pad17)*%
X190290000Y-77752701D03*
%TO.P,A1,18,D3*%
%TO.N,Net-(A1-D3)*%
X192830000Y-77752701D03*
%TO.P,A1,19,D4*%
%TO.N,unconnected-(A1-D4-Pad19)*%
X195370000Y-77752701D03*
%TO.P,A1,20,D5*%
%TO.N,Net-(A1-D5)*%
X197910000Y-77752701D03*
%TO.P,A1,21,D6*%
%TO.N,Net-(A1-D6)*%
X200450000Y-77752701D03*
%TO.P,A1,22,D7*%
%TO.N,unconnected-(A1-D7-Pad22)*%
X202990000Y-77752701D03*
%TO.P,A1,23,D8*%
%TO.N,unconnected-(A1-D8-Pad23)*%
X207050000Y-77752701D03*
%TO.P,A1,24,D9*%
%TO.N,Net-(A1-D9)*%
X209590000Y-77752701D03*
%TO.P,A1,25,D10*%
%TO.N,unconnected-(A1-D10-Pad25)*%
X212130000Y-77752701D03*
%TO.P,A1,26,D11*%
%TO.N,Net-(A1-D11)*%
X214670000Y-77752701D03*
%TO.P,A1,27,D12*%
%TO.N,unconnected-(A1-D12-Pad27)*%
X217210000Y-77752701D03*
%TO.P,A1,28,D13*%
%TO.N,unconnected-(A1-D13-Pad28)*%
X219750000Y-77752701D03*
%TO.P,A1,29,GND*%
%TO.N,GND*%
X222290000Y-77752701D03*
%TO.P,A1,30,AREF*%
%TO.N,unconnected-(A1-AREF-Pad30)*%
X224830000Y-77752701D03*
%TO.P,A1,31,SDA/A4*%
%TO.N,unconnected-(A1-SDA{slash}A4-Pad31)*%
X227370000Y-77752701D03*
%TO.P,A1,32,SCL/A5*%
%TO.N,unconnected-(A1-SCL{slash}A5-Pad32)*%
X229910000Y-77752701D03*
%TD*%
D12*
%TO.P,R19,1*%
%TO.N,Net-(Q15-B)*%
X148590000Y-62937701D03*
%TO.P,R19,2*%
%TO.N,Net-(A1-D11)*%
X156210000Y-62937701D03*
%TD*%
%TO.P,R2,1*%
%TO.N,+5V*%
X90170000Y-167077701D03*
%TO.P,R2,2*%
%TO.N,Net-(J1-Pin_1)*%
X90170000Y-174697701D03*
%TD*%
%TO.P,R1,1*%
%TO.N,Net-(Q13-B)*%
X148590000Y-164537701D03*
%TO.P,R1,2*%
%TO.N,Net-(A1-D6)*%
X156210000Y-164537701D03*
%TD*%
D22*
%TO.P,C2,1*%
%TO.N,Net-(Q14-B)*%
X148590000Y-121357701D03*
D19*
%TO.P,C2,2*%
%TO.N,GND*%
X148590000Y-125157701D03*
%TD*%
D15*
%TO.P,J7,1,Pin_1*%
%TO.N,Net-(J7-Pin_1)*%
X115570000Y-131517701D03*
D16*
%TO.P,J7,2,Pin_2*%
%TO.N,Net-(J7-Pin_2)*%
X115570000Y-136517701D03*
%TD*%
D12*
%TO.P,R23,1*%
%TO.N,+5V*%
X128270000Y-65477701D03*
%TO.P,R23,2*%
%TO.N,Net-(J12-Pin_1)*%
X128270000Y-73097701D03*
%TD*%
D10*
%TO.P,Q4,1,E*%
%TO.N,GND*%
X128270000Y-195017701D03*
D11*
%TO.P,Q4,2,B*%
%TO.N,Net-(Q4-B)*%
X128270000Y-193747701D03*
%TO.P,Q4,3,C*%
%TO.N,Net-(J4-Pin_2)*%
X128270000Y-192477701D03*
%TD*%
D15*
%TO.P,J9,1,Pin_1*%
%TO.N,Net-(J9-Pin_1)*%
X90170000Y-80717701D03*
D16*
%TO.P,J9,2,Pin_2*%
%TO.N,Net-(J9-Pin_2)*%
X90170000Y-85717701D03*
%TD*%
D15*
%TO.P,J3,1,Pin_1*%
%TO.N,Net-(J3-Pin_1)*%
X115570000Y-180912701D03*
D16*
%TO.P,J3,2,Pin_2*%
%TO.N,Net-(J3-Pin_2)*%
X115570000Y-185912701D03*
%TD*%
D15*
%TO.P,J8,1,Pin_1*%
%TO.N,Net-(J8-Pin_1)*%
X128270000Y-131517701D03*
D16*
%TO.P,J8,2,Pin_2*%
%TO.N,Net-(J8-Pin_2)*%
X128270000Y-136517701D03*
%TD*%
D10*
%TO.P,Q2,1,E*%
%TO.N,GND*%
X102870000Y-195017701D03*
D11*
%TO.P,Q2,2,B*%
%TO.N,Net-(Q2-B)*%
X102870000Y-193747701D03*
%TO.P,Q2,3,C*%
%TO.N,Net-(J2-Pin_2)*%
X102870000Y-192477701D03*
%TD*%
D15*
%TO.P,J2,1,Pin_1*%
%TO.N,Net-(J2-Pin_1)*%
X102870000Y-181047701D03*
D16*
%TO.P,J2,2,Pin_2*%
%TO.N,Net-(J2-Pin_2)*%
X102870000Y-186047701D03*
%TD*%
D15*
%TO.P,J5,1,Pin_1*%
%TO.N,Net-(J5-Pin_1)*%
X90170000Y-131517701D03*
D16*
%TO.P,J5,2,Pin_2*%
%TO.N,Net-(J5-Pin_2)*%
X90170000Y-136517701D03*
%TD*%
D13*
%TO.P,D4,1,K*%
%TO.N,Net-(D4-K)*%
X97790000Y-159457701D03*
D12*
%TO.P,D4,2,A*%
%TO.N,Net-(D4-A)*%
X105410000Y-159457701D03*
%TD*%
D23*
%TO.P,J15,1,Pin_1*%
%TO.N,GND*%
X202170000Y-161997701D03*
D16*
%TO.P,J15,2,Pin_2*%
%TO.N,Net-(J15-Pin_2)*%
X207170000Y-161997701D03*
%TO.P,J15,3,Pin_3*%
%TO.N,Net-(J15-Pin_3)*%
X212170000Y-161997701D03*
%TO.P,J15,4,Pin_4*%
%TO.N,unconnected-(J15-Pin_4-Pad4)*%
X217170000Y-161997701D03*
%TO.P,J15,5,Pin_5*%
%TO.N,unconnected-(J15-Pin_5-Pad5)*%
X222170000Y-161997701D03*
%TD*%
D10*
%TO.P,Q15,1,E*%
%TO.N,Net-(D9-A)*%
X138430000Y-68017701D03*
D11*
%TO.P,Q15,2,B*%
%TO.N,Net-(Q15-B)*%
X138430000Y-66747701D03*
%TO.P,Q15,3,C*%
%TO.N,+5V*%
X138430000Y-65477701D03*
%TD*%
D14*
%TO.P,H4,1*%
%TO.N,N/C*%
X252730000Y-207717701D03*
%TD*%
D24*
%TO.P,C4,1*%
%TO.N,+5V*%
X188690000Y-156917701D03*
D12*
%TO.P,C4,2*%
%TO.N,GND*%
X186690000Y-156917701D03*
%TD*%
D22*
%TO.P,C3,1*%
%TO.N,Net-(Q15-B)*%
X148590000Y-70557701D03*
D19*
%TO.P,C3,2*%
%TO.N,GND*%
X148590000Y-74357701D03*
%TD*%
D25*
%TO.P,J16,1*%
%TO.N,+5V*%
X179070000Y-170012701D03*
D26*
%TO.P,J16,2*%
%TO.N,GND*%
X179070000Y-176012701D03*
%TO.P,J16,3*%
%TO.N,N/C*%
X183770000Y-173012701D03*
%TD*%
D13*
%TO.P,D3,1,K*%
%TO.N,Net-(D2-A)*%
X121920000Y-207717701D03*
D12*
%TO.P,D3,2,A*%
%TO.N,Net-(D3-A)*%
X129540000Y-207717701D03*
%TD*%
D15*
%TO.P,J11,1,Pin_1*%
%TO.N,Net-(J11-Pin_1)*%
X115570000Y-80717701D03*
D16*
%TO.P,J11,2,Pin_2*%
%TO.N,Net-(J11-Pin_2)*%
X115570000Y-85717701D03*
%TD*%
D22*
%TO.P,C1,1*%
%TO.N,Net-(Q13-B)*%
X148590000Y-172157701D03*
D19*
%TO.P,C1,2*%
%TO.N,GND*%
X148590000Y-175957701D03*
%TD*%
D13*
%TO.P,D1,1,K*%
%TO.N,Net-(D1-K)*%
X96520000Y-207717701D03*
D12*
%TO.P,D1,2,A*%
%TO.N,Net-(D1-A)*%
X104140000Y-207717701D03*
%TD*%
D10*
%TO.P,Q11,1,E*%
%TO.N,GND*%
X115570000Y-95957701D03*
D11*
%TO.P,Q11,2,B*%
%TO.N,Net-(Q11-B)*%
X115570000Y-94687701D03*
%TO.P,Q11,3,C*%
%TO.N,Net-(J11-Pin_2)*%
X115570000Y-93417701D03*
%TD*%
D10*
%TO.P,Q5,1,E*%
%TO.N,GND*%
X90170000Y-146757701D03*
D11*
%TO.P,Q5,2,B*%
%TO.N,Net-(Q5-B)*%
X90170000Y-145487701D03*
%TO.P,Q5,3,C*%
%TO.N,Net-(J5-Pin_2)*%
X90170000Y-144217701D03*
%TD*%
D12*
%TO.P,R25,1*%
%TO.N,Net-(Q10-B)*%
X107950000Y-98497701D03*
%TO.P,R25,2*%
%TO.N,Net-(D7-A)*%
X107950000Y-106117701D03*
%TD*%
D27*
%TO.N,Net-(A1-D0{slash}RX)*%
X173990000Y-76907701D02*
X175260000Y-75637701D01*
X173990000Y-123897701D02*
X173990000Y-76907701D01*
X183095000Y-75637701D02*
X185210000Y-77752701D01*
X175260000Y-75637701D02*
X183095000Y-75637701D01*
X173990000Y-123897701D02*
X189230000Y-139137701D01*
D28*
X193040000Y-139137701D02*
X189230000Y-139137701D01*
D27*
%TO.N,Net-(A1-D3)*%
X193040000Y-74367701D02*
X193040000Y-77542701D01*
X191770000Y-73097701D02*
X193040000Y-74367701D01*
X170180000Y-74367701D02*
X171450000Y-73097701D01*
X171450000Y-73097701D02*
X191770000Y-73097701D01*
X179070000Y-139137701D02*
X179070000Y-132787701D01*
X193040000Y-77542701D02*
X192830000Y-77752701D01*
X179070000Y-132787701D02*
X170180000Y-123897701D01*
X170180000Y-123897701D02*
X170180000Y-74367701D01*
%TO.N,Net-(A1-D9)*%
X157480000Y-65477701D02*
X208280000Y-65477701D01*
X208280000Y-65477701D02*
X209590000Y-66787701D01*
X156210000Y-113737701D02*
X156210000Y-66747701D01*
X156210000Y-66747701D02*
X157480000Y-65477701D01*
X209590000Y-66787701D02*
X209590000Y-77752701D01*
%TO.N,Net-(A1-D6)*%
X200660000Y-77542701D02*
X200450000Y-77752701D01*
X158750000Y-69287701D02*
X160020000Y-68017701D01*
X156210000Y-118817701D02*
X158750000Y-116277701D01*
X199390000Y-68017701D02*
X200660000Y-69287701D01*
X156210000Y-164537701D02*
X156210000Y-118817701D01*
X160020000Y-68017701D02*
X199390000Y-68017701D01*
X158750000Y-116277701D02*
X158750000Y-69287701D01*
X200660000Y-69287701D02*
X200660000Y-77542701D01*
%TO.N,Net-(A1-D11)*%
X213360000Y-62937701D02*
X214630000Y-64207701D01*
X156210000Y-62937701D02*
X213360000Y-62937701D01*
X214630000Y-64207701D02*
X214630000Y-77712701D01*
X214630000Y-77712701D02*
X214670000Y-77752701D01*
%TO.N,Net-(A1-D5)*%
X196850000Y-70557701D02*
X198120000Y-71827701D01*
X165100000Y-139137701D02*
X165100000Y-71827701D01*
X166370000Y-70557701D02*
X196850000Y-70557701D01*
X165100000Y-71827701D02*
X166370000Y-70557701D01*
X198120000Y-77542701D02*
X197910000Y-77752701D01*
X198120000Y-71827701D02*
X198120000Y-77542701D01*
%TO.N,Net-(D1-A)*%
X106680000Y-205177701D02*
X106680000Y-207717701D01*
X104140000Y-207717701D02*
X106680000Y-207717701D01*
X106680000Y-207717701D02*
X109220000Y-207717701D01*
%TO.N,Net-(D1-K)*%
X94020000Y-205217701D02*
X96520000Y-207717701D01*
X94020000Y-205177701D02*
X94020000Y-205217701D01*
%TO.N,Net-(D2-A)*%
X119380000Y-207717701D02*
X116840000Y-207717701D01*
X119380000Y-207717701D02*
X121920000Y-207717701D01*
X119380000Y-205177701D02*
X119380000Y-207717701D01*
%TO.N,Net-(D3-A)*%
X132080000Y-207717701D02*
X135890000Y-207717701D01*
X132080000Y-205177701D02*
X130810000Y-206447701D01*
X135890000Y-207717701D02*
X138430000Y-205177701D01*
X138430000Y-205177701D02*
X138430000Y-169617701D01*
X130810000Y-206447701D02*
X132080000Y-207717701D01*
X130810000Y-206447701D02*
X129540000Y-207717701D01*
%TO.N,Net-(D4-K)*%
X95250000Y-156917701D02*
X97790000Y-159457701D01*
%TO.N,Net-(D4-A)*%
X110445000Y-159457701D02*
X110490000Y-159412701D01*
X107950000Y-156917701D02*
X107950000Y-159457701D01*
X105410000Y-159457701D02*
X107950000Y-159457701D01*
X107950000Y-159457701D02*
X110445000Y-159457701D01*
%TO.N,Net-(D5-A)*%
X118110000Y-159457701D02*
X120650000Y-159457701D01*
X120650000Y-159457701D02*
X123190000Y-159457701D01*
X120650000Y-156917701D02*
X120650000Y-159457701D01*
%TO.N,Net-(D6-A)*%
X133350000Y-159457701D02*
X135890000Y-159457701D01*
X132080000Y-158187701D02*
X133350000Y-159457701D01*
X135890000Y-159457701D02*
X138430000Y-156917701D01*
X138430000Y-156917701D02*
X138430000Y-118817701D01*
X132080000Y-158187701D02*
X133350000Y-156917701D01*
X130810000Y-159457701D02*
X132080000Y-158187701D01*
%TO.N,Net-(D7-K)*%
X95250000Y-106117701D02*
X95250000Y-106507701D01*
X95250000Y-106507701D02*
X97400000Y-108657701D01*
%TO.N,Net-(D7-A)*%
X107950000Y-106117701D02*
X107950000Y-108657701D01*
X107950000Y-108657701D02*
X110490000Y-108657701D01*
X105020000Y-108657701D02*
X107950000Y-108657701D01*
%TO.N,Net-(D8-A)*%
X118110000Y-108657701D02*
X120650000Y-108657701D01*
X120650000Y-106117701D02*
X120650000Y-108657701D01*
X120650000Y-108657701D02*
X123190000Y-108657701D01*
%TO.N,Net-(D9-A)*%
X138430000Y-68017701D02*
X138430000Y-106117701D01*
X132080000Y-107387701D02*
X133350000Y-106117701D01*
X138430000Y-106117701D02*
X135890000Y-108657701D01*
X130810000Y-108657701D02*
X132080000Y-107387701D01*
X135890000Y-108657701D02*
X133350000Y-108657701D01*
X133350000Y-108657701D02*
X132080000Y-107387701D01*
%TO.N,Net-(J1-Pin_2)*%
X90170000Y-185912701D02*
X90170000Y-192477701D01*
%TO.N,Net-(Q1-B)*%
X92710000Y-193747701D02*
X93980000Y-195017701D01*
X90170000Y-193747701D02*
X92710000Y-193747701D01*
X93980000Y-195017701D02*
X93980000Y-197517701D01*
X93980000Y-197517701D02*
X94020000Y-197557701D01*
%TO.N,Net-(J2-Pin_2)*%
X102870000Y-186047701D02*
X102870000Y-192477701D01*
%TO.N,Net-(Q2-B)*%
X105410000Y-193747701D02*
X106680000Y-195017701D01*
X106680000Y-195017701D02*
X106680000Y-197557701D01*
X102870000Y-193747701D02*
X105410000Y-193747701D01*
%TO.N,Net-(Q3-B)*%
X118110000Y-193747701D02*
X119380000Y-195017701D01*
X119380000Y-195017701D02*
X119380000Y-197557701D01*
X115570000Y-193747701D02*
X118110000Y-193747701D01*
%TO.N,Net-(J3-Pin_2)*%
X115570000Y-185912701D02*
X115570000Y-192477701D01*
%TO.N,Net-(Q4-B)*%
X132080000Y-195017701D02*
X132080000Y-197557701D01*
X128270000Y-193747701D02*
X130810000Y-193747701D01*
X130810000Y-193747701D02*
X132080000Y-195017701D01*
%TO.N,Net-(J4-Pin_2)*%
X128270000Y-186047701D02*
X128270000Y-192477701D01*
%TO.N,Net-(J5-Pin_2)*%
X90170000Y-136517701D02*
X90170000Y-144217701D01*
%TO.N,Net-(Q5-B)*%
X90170000Y-145487701D02*
X93980000Y-145487701D01*
X95250000Y-146757701D02*
X95250000Y-149297701D01*
X93980000Y-145487701D02*
X95250000Y-146757701D01*
%TO.N,Net-(Q6-B)*%
X107950000Y-146757701D02*
X107950000Y-149297701D01*
X102870000Y-145487701D02*
X106680000Y-145487701D01*
X106680000Y-145487701D02*
X107950000Y-146757701D01*
%TO.N,Net-(J6-Pin_2)*%
X102870000Y-136517701D02*
X102870000Y-144217701D01*
%TO.N,Net-(J7-Pin_2)*%
X115570000Y-136517701D02*
X115570000Y-144162701D01*
%TO.N,Net-(Q7-B)*%
X119325000Y-145432701D02*
X120650000Y-146757701D01*
X115570000Y-145432701D02*
X119325000Y-145432701D01*
X120650000Y-146757701D02*
X120650000Y-149297701D01*
%TO.N,Net-(J8-Pin_2)*%
X128270000Y-136517701D02*
X128270000Y-144162701D01*
%TO.N,Net-(Q8-B)*%
X132025000Y-145432701D02*
X133350000Y-146757701D01*
X133350000Y-146757701D02*
X133350000Y-149297701D01*
X128270000Y-145432701D02*
X132025000Y-145432701D01*
%TO.N,Net-(Q9-B)*%
X93980000Y-94687701D02*
X95250000Y-95957701D01*
X90170000Y-94687701D02*
X93980000Y-94687701D01*
X95250000Y-95957701D02*
X95250000Y-98497701D01*
%TO.N,Net-(J9-Pin_2)*%
X90170000Y-85717701D02*
X90170000Y-93417701D01*
%TO.N,Net-(Q10-B)*%
X102870000Y-94682701D02*
X106675000Y-94682701D01*
X107950000Y-95957701D02*
X107950000Y-98497701D01*
X106675000Y-94682701D02*
X107950000Y-95957701D01*
%TO.N,Net-(J10-Pin_2)*%
X102870000Y-85717701D02*
X102870000Y-93412701D01*
%TO.N,Net-(J11-Pin_2)*%
X115570000Y-85717701D02*
X115570000Y-93417701D01*
%TO.N,Net-(Q11-B)*%
X119380000Y-94687701D02*
X120650000Y-95957701D01*
X120650000Y-95957701D02*
X120650000Y-98497701D01*
X115570000Y-94687701D02*
X119380000Y-94687701D01*
%TO.N,Net-(Q12-B)*%
X128270000Y-94687701D02*
X132080000Y-94687701D01*
X133350000Y-95957701D02*
X133350000Y-98497701D01*
X132080000Y-94687701D02*
X133350000Y-95957701D01*
%TO.N,Net-(J12-Pin_2)*%
X128270000Y-85717701D02*
X128270000Y-93417701D01*
%TO.N,Net-(Q13-B)*%
X148590000Y-172157701D02*
X144780000Y-168347701D01*
X148590000Y-164537701D02*
X148590000Y-172157701D01*
X144780000Y-168347701D02*
X138430000Y-168347701D01*
%TO.N,Net-(Q14-B)*%
X148590000Y-113737701D02*
X148590000Y-121357701D01*
X138430000Y-117547701D02*
X144780000Y-117547701D01*
X144780000Y-117547701D02*
X148590000Y-121357701D01*
%TO.N,Net-(Q15-B)*%
X138430000Y-66747701D02*
X144780000Y-66747701D01*
X144780000Y-66747701D02*
X148590000Y-70557701D01*
X148590000Y-62937701D02*
X148590000Y-70557701D01*
D28*
%TO.N,Net-(J15-Pin_2)*%
X208280000Y-151837701D02*
X236220000Y-151837701D01*
X236220000Y-151837701D02*
X237490000Y-150567701D01*
X236220000Y-144217701D02*
X233680000Y-144217701D01*
X207010000Y-161837701D02*
X207010000Y-153107701D01*
X207170000Y-161997701D02*
X207010000Y-161837701D01*
X237490000Y-150567701D02*
X237490000Y-145487701D01*
X207010000Y-153107701D02*
X208280000Y-151837701D01*
X237490000Y-145487701D02*
X236220000Y-144217701D01*
%TO.N,Net-(J15-Pin_3)*%
X212170000Y-155567701D02*
X213360000Y-154377701D01*
X213360000Y-154377701D02*
X237490000Y-154377701D01*
X240030000Y-142947701D02*
X238760000Y-141677701D01*
X240030000Y-151837701D02*
X240030000Y-142947701D01*
X212170000Y-161997701D02*
X212170000Y-155567701D01*
X238760000Y-141677701D02*
X233680000Y-141677701D01*
X237490000Y-154377701D02*
X240030000Y-151837701D01*
D27*
%TO.N,Net-(J1-Pin_1)*%
X90170000Y-174697701D02*
X90170000Y-180912701D01*
%TO.N,Net-(J2-Pin_1)*%
X102870000Y-174697701D02*
X102870000Y-181047701D01*
%TO.N,Net-(J3-Pin_1)*%
X115570000Y-174697701D02*
X115570000Y-180912701D01*
%TO.N,Net-(J4-Pin_1)*%
X128270000Y-174697701D02*
X128270000Y-181047701D01*
%TO.N,Net-(J5-Pin_1)*%
X90170000Y-124412701D02*
X90170000Y-131517701D01*
%TO.N,Net-(J6-Pin_1)*%
X102870000Y-124162701D02*
X102870000Y-131517701D01*
%TO.N,Net-(J7-Pin_1)*%
X115570000Y-124162701D02*
X115570000Y-131517701D01*
%TO.N,Net-(J8-Pin_1)*%
X128270000Y-124162701D02*
X128270000Y-131517701D01*
%TO.N,Net-(J9-Pin_1)*%
X90170000Y-73097701D02*
X90170000Y-80717701D01*
%TO.N,Net-(J10-Pin_1)*%
X102870000Y-73097701D02*
X102870000Y-80717701D01*
%TO.N,Net-(J11-Pin_1)*%
X115570000Y-73097701D02*
X115570000Y-80717701D01*
%TO.N,Net-(J12-Pin_1)*%
X128270000Y-73097701D02*
X128270000Y-80717701D01*
%TD*%
M02*
